# xmcd
#
# Track frame offsets: 
#        150
#        19220
#        37950
#        52902
#        71735
#        93157
#
# Disc length: 1478 seconds
#
# Revision: 0
# Processed by: cddbd v1.5.2PL0 Copyright (c) Steve Scherf et al.
# Submitted via: ExactAudioCopy v0.99pb4
#
DISCID=4305c406
DTITLE=Joe - Ride Wit U (ft. G-Unit)
DYEAR=2004
DGENRE=R&B
TTITLE0=Ride Wit U (ft. G-Unit)
TTITLE1=Ride Wit U (Dodge Mix ft. G-Unit)
TTITLE2=Ride Wit U (The Magnificent 7 Refix ft. G-Unit)
TTITLE3=Ride Wit U (Instrumental)
TTITLE4=Ride Wit U (Dodge Mix Instrumental)
TTITLE5=Ride Wit U (The Magnificent 7 Refix Instrumental)
EXTD=
EXTT0=
EXTT1=
EXTT2=
EXTT3=
EXTT4=
EXTT5=
PLAYORDER=
